<svg width="56" height="56" viewBox="0 0 56 56" fill="none" xmlns="http://www.w3.org/2000/svg">
<path d="M44.3333 25.6666H16.66L25.13 15.4933C25.5261 15.0168 25.7166 14.4025 25.6597 13.7855C25.6028 13.1685 25.3032 12.5993 24.8267 12.2033C24.3502 11.8072 23.7358 11.6167 23.1189 11.6736C22.5019 11.7305 21.9327 12.0301 21.5367 12.5066L9.87001 26.5066C9.79152 26.618 9.72133 26.735 9.66001 26.8566C9.66001 26.9733 9.66001 27.0433 9.49668 27.16C9.39092 27.4275 9.33554 27.7123 9.33334 28C9.33554 28.2876 9.39092 28.5724 9.49668 28.84C9.49668 28.9566 9.49668 29.0266 9.66001 29.1433C9.72133 29.2649 9.79152 29.3819 9.87001 29.4933L21.5367 43.4933C21.7561 43.7567 22.0308 43.9685 22.3413 44.1137C22.6518 44.2589 22.9906 44.3338 23.3333 44.3333C23.8785 44.3344 24.4069 44.1445 24.8267 43.7966C25.0629 43.6007 25.2583 43.3602 25.4014 43.0887C25.5446 42.8172 25.6328 42.5202 25.6609 42.2146C25.6891 41.9089 25.6567 41.6008 25.5656 41.3077C25.4745 41.0146 25.3265 40.7424 25.13 40.5066L16.66 30.3333H44.3333C44.9522 30.3333 45.5457 30.0875 45.9833 29.6499C46.4208 29.2123 46.6667 28.6188 46.6667 28C46.6667 27.3811 46.4208 26.7876 45.9833 26.35C45.5457 25.9125 44.9522 25.6666 44.3333 25.6666Z" fill="#ED864A"/>
</svg>
