<?xml version="1.0" encoding="UTF-8"?>
<svg id="Layer_2" data-name="Layer 2" xmlns="http://www.w3.org/2000/svg" xmlns:xlink="http://www.w3.org/1999/xlink" viewBox="0 0 263 338">
  <defs>
    <style>
      .cls-1 {
        fill: #996229;
      }

      .cls-2 {
        fill: #ea7135;
        filter: url(#drop-shadow-1);
      }
    </style>
    <filter id="drop-shadow-1" filterUnits="userSpaceOnUse">
      <feOffset dx="-8" dy="4"/>
      <feGaussianBlur result="blur" stdDeviation="6"/>
      <feFlood flood-color="#000" flood-opacity=".3"/>
      <feComposite in2="blur" operator="in"/>
      <feComposite in="SourceGraphic"/>
    </filter>
  </defs>
  <g id="Layer_1-2" data-name="Layer 1">
    <g>
      <path class="cls-1" d="m85.14,316h-51c-1.1,0-2-.9-2-2.01V16.01c0-1.11.9-2.01,2-2.01h51c1.1,0,2,.9,2,2.01v297.99c0,1.11-.9,2.01-2,2.01Z"/>
      <path class="cls-2" d="m104.45,165l147.09,147.09c1.26,1.26.37,3.41-1.41,3.41h-72.12c-.53,0-1.04-.21-1.41-.59L26.67,165,176.59,15.09c.38-.38.88-.59,1.41-.59h72.12c1.78,0,2.67,2.15,1.41,3.41L104.45,165Z"/>
    </g>
  </g>
</svg>